<?xml version="1.0" encoding="UTF-8"?>
<svg width="23px" height="18px" viewBox="0 0 23 18" version="1.1" xmlns="http://www.w3.org/2000/svg" xmlns:xlink="http://www.w3.org/1999/xlink">
    <!-- Generator: Sketch 50.2 (55047) - http://www.bohemiancoding.com/sketch -->
    <title>Shape Copy 2</title>
    <desc>Created with Sketch.</desc>
    <defs></defs>
    <g id="Page-1" stroke="none" stroke-width="1" fill="none" fill-rule="evenodd">
        <g id="partners-inside" transform="translate(-504.000000, -1211.000000)" fill="#12B916" fill-rule="nonzero">
            <g id="table" transform="translate(331.000000, 774.000000)">
                <path d="M193.752644,437.21206 C193.471814,436.929313 193.014627,436.929313 192.735714,437.21206 L182.019138,447.878796 C181.738308,448.16346 181.280163,448.16346 181.00125,447.878796 L176.305739,443.097024 C176.166762,442.955171 175.984654,442.885203 175.801588,442.884245 C175.616604,442.883286 175.428746,442.953254 175.287851,443.097024 L173.212779,444.962193 C173.07476,445.104045 173,445.281361 173,445.466344 C173,445.652286 173.07476,445.846854 173.213737,445.987748 L177.948545,450.956421 C178.228416,451.240126 178.68752,451.700189 178.966433,451.981977 L181.002209,454.034046 C181.28208,454.314876 181.739267,454.314876 182.020096,454.034046 L195.789378,440.289685 C196.070207,440.007897 196.070207,439.544959 195.789378,439.263171 L193.752644,437.21206 Z" id="Shape-Copy-2"></path>
            </g>
        </g>
    </g>
</svg>