<svg height="22" width="22" xmlns="http://www.w3.org/2000/svg"><path d="M20.43 0H1.566C.702 0 0 .712 0 1.586v18.828C0 21.288.702 22 1.567 22H20.43c.863 0 1.57-.712 1.57-1.586V1.586C22 .712 21.293 0 20.43 0zM6.65 18.857H3.39v-10.5h3.265v10.5zM5.02 6.924a1.89 1.89 0 0 1 0-3.78c1.04 0 1.89.85 1.89 1.89 0 1.045-.844 1.89-1.89 1.89zm13.853 11.933h-3.26V13.75c0-1.218-.025-2.784-1.695-2.784-1.7 0-1.96 1.326-1.96 2.696v5.195h-3.26v-10.5h3.128v1.435h.044c.437-.825 1.503-1.694 3.09-1.694 3.3 0 3.913 2.175 3.913 5.004z" fill="#fff"/></svg>