<svg height="22" width="22" xmlns="http://www.w3.org/2000/svg"><path d="M19.643 0H2.357A2.358 2.358 0 0 0 0 2.357v17.286A2.358 2.358 0 0 0 2.357 22h17.286A2.358 2.358 0 0 0 22 19.643V2.357A2.358 2.358 0 0 0 19.643 0zm-2.4 7.798c.01.138.01.28.01.418 0 4.257-3.243 9.163-9.165 9.163a9.12 9.12 0 0 1-4.945-1.445c.26.03.51.04.776.04 1.506 0 2.89-.51 3.996-1.375a3.225 3.225 0 0 1-3.01-2.235c.496.074.943.074 1.453-.06a3.22 3.22 0 0 1-2.58-3.16v-.04c.428.24.93.387 1.455.407A3.214 3.214 0 0 1 3.8 6.832c0-.6.157-1.15.437-1.627a9.145 9.145 0 0 0 6.64 3.37c-.457-2.186 1.178-3.96 3.142-3.96a3.21 3.21 0 0 1 2.35 1.018 6.31 6.31 0 0 0 2.044-.776A3.212 3.212 0 0 1 17 6.63a6.41 6.41 0 0 0 1.856-.5A6.78 6.78 0 0 1 17.24 7.8z" fill="#fff"/></svg>