<svg height="612" width="612" xmlns="http://www.w3.org/2000/svg"><g fill-rule="evenodd" opacity=".02"><path d="m612 306c0-168.73-137.27-306-306-306s-306 137.27-306 306 137.27 306 306 306 306-137.27 306-306zm-30.6 0c0 151.855-123.545 275.4-275.4 275.4-151.857 0-275.4-123.545-275.4-275.4 0-151.857 123.543-275.4 275.4-275.4 151.855 0 275.4 123.543 275.4 275.4z" fill-rule="nonzero"/><path d="m307.997 286.168 87.314-87.314c10.914-8.73 30.56 10.915 21.828 21.829l-87.314 87.314 87.314 87.314c8.731 10.914-10.914 30.56-21.828 21.828l-87.314-87.314-87.314 87.314c-10.914 8.731-30.56-10.914-21.829-21.828l87.314-87.314-87.314-87.314c-8.73-10.914 10.915-30.56 21.829-21.829z"/></g></svg>