<svg height="612" width="612" xmlns="http://www.w3.org/2000/svg"><path d="M260.777 438.288a15.306 15.306 0 0 1-9.96-3.684l-90.437-77.519c-6.414-5.5-7.158-15.159-1.66-21.575 5.5-6.412 15.16-7.153 21.576-1.657l78.25 67.076 171.03-219.892c5.19-6.667 14.793-7.877 21.47-2.682 6.668 5.188 7.87 14.8 2.683 21.47L272.847 432.383a15.286 15.286 0 0 1-12.07 5.905zM612 306C612 137.27 474.73 0 306 0S0 137.27 0 306s137.27 306 306 306 306-137.27 306-306zm-30.6 0c0 151.855-123.545 275.4-275.4 275.4-151.857 0-275.4-123.545-275.4-275.4C30.6 154.143 154.143 30.6 306 30.6c151.855 0 275.4 123.543 275.4 275.4z" opacity=".02"/></svg>