<svg height="44" width="44" xmlns="http://www.w3.org/2000/svg"><path d="M25.3 0c-4.175 0-7.36 1.216-9.952 2.337C12.758 3.46 10.786 4.4 8.8 4.4H2.475A1.65 1.65 0 0 0 .859 5.69C.306 8.138 0 11.091 0 14.3c0 3.208.306 6.161.86 8.61a1.65 1.65 0 0 0 1.615 1.29h6.927c4.166 2.396 6.802 6.288 8.37 9.728a30.517 30.517 0 0 1 1.65 4.572c.161.592.273 1.075.344 1.41.035.167.069.305.086.395.017.09-.008-.012.034.189A4.42 4.42 0 0 0 24.2 44c2.41 0 4.4-1.99 4.4-4.4V29.15h9.35c3.145 0 5.5-2.84 5.5-6.05 0-1.017-.293-1.935-.705-2.784A6.346 6.346 0 0 0 44 16.5a6.337 6.337 0 0 0-1.323-3.919A6.032 6.032 0 0 0 42.9 11c0-1.926-.9-3.686-2.372-4.675.04-.282.172-.533.172-.825 0-2.89-2.087-5.5-4.95-5.5zm0 3.3h10.45c.782 0 1.65.838 1.65 2.2 0 .404-.085.768-.223 1.083a1.65 1.65 0 0 0 1.082 2.269c.633.168 1.341.973 1.341 2.148 0 .453-.116.856-.292 1.203a1.65 1.65 0 0 0 .412 2.011c.551.467.98 1.305.98 2.286 0 .996-.445 1.837-1.014 2.303a1.65 1.65 0 0 0-.223 2.32 3.11 3.11 0 0 1 .687 1.977c0 1.65-1.093 2.75-2.2 2.75h-11a1.65 1.65 0 0 0-1.65 1.65v12.1c0 .627-.473 1.1-1.1 1.1-.555 0-.982-.369-1.083-.86.037.18.004-.043-.017-.154s-.062-.27-.103-.464a27.26 27.26 0 0 0-.378-1.581 33.872 33.872 0 0 0-1.84-5.07c-1.79-3.93-4.87-8.616-10.088-11.465A1.65 1.65 0 0 0 9.9 20.9H3.884a37.782 37.782 0 0 1-.584-6.6c0-2.46.243-4.667.584-6.6H8.8c2.964 0 5.381-1.26 7.872-2.337C19.162 4.284 21.752 3.3 25.3 3.3z" fill="#fedb1c"/></svg>